# xmcd
#
# Track frame offsets:
#	150
#	15702
#	34811
#	53872
#	72706
#	87854
#	104677
#	120314
#	139785
#	157070
#	174674
#
# Disc length: 2609 seconds
#
# Revision: 1
# Processed by: cddbd v1.5.2PL0 Copyright (c) Steve Scherf et al.
# Submitted via: EZCDAudioConverter 8.0.2.1
#
DISCID=9a0a2f0b
DTITLE=Thanh Thảo - Búp Bê Con Trai
DYEAR=2007
DGENRE=World Pop
TTITLE0=Tình yêu của tôi
TTITLE1=Tình yêu đã hết
TTITLE2=Búp Bê Con Trai
TTITLE3=Búp bê thich Dance
TTITLE4=Tình đã xa
TTITLE5=Chỉ là dĩ vãng
TTITLE6=Nàng
TTITLE7=Rối bời
TTITLE8=Rồi ánh trăng tàn
TTITLE9=Đêm nhớ anh
TTITLE10=Yêu làm chi
EXTD=
EXTT0=
EXTT1=
EXTT2=
EXTT3=
EXTT4=
EXTT5=
EXTT6=
EXTT7=
EXTT8=
EXTT9=
EXTT10=
PLAYORDER=
